<?xml version="1.0" standalone="no"?>
<!DOCTYPE svg PUBLIC "-//W3C//DTD SVG 20010904//EN"
 "http://www.w3.org/TR/2001/REC-SVG-20010904/DTD/svg10.dtd">
<svg version="1.0" xmlns="http://www.w3.org/2000/svg"
 width="267.000000pt" height="267.000000pt" viewBox="0 0 267.000000 267.000000"
 preserveAspectRatio="xMidYMid meet">
<metadata>
Created by potrace 1.11, written by Peter Selinger 2001-2013
</metadata>
<g transform="translate(0.000000,267.000000) scale(0.100000,-0.100000)"
fill="#000000" stroke="none">
<path d="M735 2499 c-261 -24 -473 -181 -574 -424 -66 -159 -83 -364 -42 -519
99 -373 478 -838 1109 -1360 l94 -77 36 32 c20 17 106 97 191 178 539 510 890
1023 961 1400 45 241 -51 521 -222 647 -101 74 -152 89 -308 88 -114 0 -145
-4 -200 -23 -83 -29 -181 -87 -248 -148 l-52 -48 39 -61 c85 -131 130 -291
131 -458 0 -97 0 -98 23 -91 45 14 222 17 279 6 63 -14 157 -57 203 -95 l30
-25 -20 -20 -20 -20 -59 40 c-32 21 -83 46 -113 55 -67 19 -207 20 -277 1
l-50 -13 -21 -69 c-58 -191 -197 -363 -405 -505 -58 -40 -62 -41 -75 -23 -8
10 -14 23 -14 28 0 6 36 35 80 65 96 66 241 214 288 293 76 129 105 271 90
433 -18 191 -83 343 -201 470 -174 186 -394 268 -653 243z"/>
</g>
</svg>
